# xmcd CD database file
#
# Track frame offsets:
#	150
#	10625
#	21617
#	31545
#	41662
#	53150
#	64107
#	79090
#	91087
#	100997
#	111632
#	123622
#	131675
#	143085
#	154340
#	166000
#	174337
#
# Disc length: 2492 seconds
#
# Revision: 1
# Processed by: cddbd v1.5.1PL0 Copyright (c) Steve Scherf et al.
# Submitted via: CDex 1.51
#
DISCID=db09ba11
DTITLE=Tom Jones - The One And Only
DYEAR=1900
DGENRE=Pop
TTITLE0=Nights On Broadway
TTITLE1=Try A Little Tenderness
TTITLE2=Proud Mary
TTITLE3=On Broadway
TTITLE4=You Win Again
TTITLE5=Over The Rainbow
TTITLE6=Sexy Eyes
TTITLE7=All By Myself
TTITLE8=I Can See Clearly Now
TTITLE9=Fever
TTITLE10=We Don't Talk Anymore
TTITLE11=Lay Down Sally
TTITLE12=Send In The Clowns
TTITLE13=Hot Legs
TTITLE14=We Can Work It Out
TTITLE15=Memphis Tennessee
TTITLE16=Passion
EXTD=
EXTT0=
EXTT1=
EXTT2=
EXTT3=
EXTT4=
EXTT5=
EXTT6=
EXTT7=
EXTT8=
EXTT9=
EXTT10=
EXTT11=
EXTT12=
EXTT13=
EXTT14=
EXTT15=
EXTT16=
PLAYORDER=
